<svg width="19" height="16" viewBox="0 0 19 16" fill="none" xmlns="http://www.w3.org/2000/svg">
<path d="M12.011 3.5C11.8121 3.5 11.6214 3.42099 11.4807 3.28033C11.3401 3.13968 11.261 2.94891 11.261 2.75V1.625H8.26099V2.75C8.26099 2.94891 8.18191 3.13968 8.04126 3.28033C7.90061 3.42099 7.7099 3.5 7.51099 3.5C7.31207 3.5 7.12137 3.42099 6.98071 3.28033C6.84006 3.13968 6.76099 2.94891 6.76099 2.75V1.625C6.76099 1.22718 6.91913 0.845636 7.20044 0.564331C7.48174 0.283026 7.86316 0.125 8.26099 0.125H11.261C11.6588 0.125 12.0405 0.283026 12.3218 0.564331C12.6031 0.845636 12.761 1.22718 12.761 1.625V2.75C12.761 2.94891 12.6819 3.13968 12.5413 3.28033C12.4006 3.42099 12.2099 3.5 12.011 3.5Z" fill="#111A18"/>
<path d="M10.293 10.16C10.1224 10.2212 9.94225 10.2517 9.76099 10.25C9.56386 10.2518 9.36816 10.218 9.18311 10.15L0.760987 7.34998V13.073C0.760855 13.3438 0.814146 13.612 0.917725 13.8622C1.0213 14.1125 1.17325 14.3399 1.36475 14.5314C1.55625 14.7229 1.78346 14.8748 2.03369 14.9783C2.28392 15.0819 2.55218 15.1351 2.823 15.135H16.698C16.9689 15.1353 17.2372 15.0821 17.4875 14.9786C17.7379 14.8751 17.9654 14.7232 18.157 14.5317C18.3486 14.3402 18.5006 14.1128 18.6042 13.8625C18.7079 13.6122 18.7611 13.3439 18.761 13.073V7.34003L10.293 10.16Z" fill="#111A18"/>
<path d="M18.761 4.43799V6.15503L9.94092 9.09497C9.88331 9.11611 9.82233 9.12631 9.76099 9.125C9.69964 9.12629 9.63867 9.11609 9.58106 9.09497L0.760987 6.15503V4.43799C0.760724 4.16708 0.813962 3.89879 0.917481 3.64844C1.021 3.39809 1.17275 3.17061 1.36426 2.979C1.55577 2.7874 1.78315 2.63544 2.03345 2.5318C2.28375 2.42816 2.55209 2.37487 2.823 2.375H16.698C16.969 2.37487 17.2372 2.42817 17.4876 2.5318C17.7379 2.63543 17.9654 2.78735 18.157 2.97894C18.3486 3.17054 18.5006 3.39802 18.6042 3.64838C18.7079 3.89873 18.7611 4.16703 18.761 4.43799Z" fill="#111A18"/>
</svg>
