<svg width="19" height="18" viewBox="0 0 19 18" fill="none" xmlns="http://www.w3.org/2000/svg">
<path fill-rule="evenodd" clip-rule="evenodd" d="M13.8 2.10602C14.4062 2.10583 14.9926 2.32034 15.4556 2.71155C15.9185 3.10276 16.2282 3.64532 16.3291 4.24298H2.68604V2.961C2.6859 2.62421 2.75207 2.29069 2.88086 1.97949C3.00965 1.6683 3.19842 1.38553 3.43652 1.14734C3.67463 0.909144 3.95741 0.720163 4.26855 0.591248C4.5797 0.462332 4.91321 0.395996 5.25 0.395996H7.44995C8.021 0.396049 8.57559 0.586798 9.02588 0.937988L9.82593 1.56403C10.2767 1.91502 10.8318 2.10573 11.4031 2.10602H13.8Z" fill="#111A18"/>
<path fill-rule="evenodd" clip-rule="evenodd" d="M16.8 5.23999H2.21995C1.96497 5.24024 1.71337 5.2975 1.48338 5.40759C1.25339 5.51769 1.05095 5.67783 0.890851 5.87628C0.730749 6.07473 0.617053 6.3065 0.558087 6.55457C0.499121 6.80263 0.49635 7.06073 0.55003 7.31L2.09007 14.51C2.25338 15.2745 2.67402 15.9598 3.28196 16.4512C3.88991 16.9427 4.64817 17.2106 5.42991 17.21H13.5801C14.363 17.2108 15.1226 16.9432 15.7322 16.4519C16.3417 15.9606 16.7644 15.2752 16.9299 14.51L18.47 7.31C18.5227 7.06083 18.5193 6.80303 18.4599 6.55536C18.4006 6.30768 18.2868 6.07633 18.1269 5.87811C17.967 5.67989 17.7649 5.5198 17.5354 5.40942C17.3059 5.29904 17.0547 5.24116 16.8 5.23999ZM11.98 10.22L10.8601 11.2L11.1899 12.65C11.1997 12.7038 11.1947 12.7592 11.1753 12.8103C11.1559 12.8614 11.1231 12.9063 11.0801 12.94C11.0356 12.9686 10.9842 12.9846 10.9314 12.9863C10.8786 12.9881 10.8263 12.9756 10.78 12.95L9.50999 12.19L8.22996 12.95C8.18689 12.9737 8.13915 12.9873 8.09007 12.99C8.03307 12.9889 7.97741 12.9715 7.92991 12.94C7.8869 12.9063 7.85408 12.8614 7.8347 12.8103C7.81531 12.7592 7.81022 12.7038 7.82005 12.65L8.14988 11.2L7.03001 10.22C6.99105 10.1838 6.96284 10.1376 6.94871 10.0864C6.93458 10.0351 6.93501 9.98099 6.94993 9.92999C6.9692 9.87969 7.0017 9.83549 7.04393 9.80206C7.08616 9.76863 7.13655 9.7472 7.18992 9.73999L8.6699 9.60999L9.25999 8.23999C9.28017 8.1901 9.31461 8.14733 9.35911 8.11707C9.40361 8.0868 9.45618 8.07043 9.50999 8.07001C9.56347 8.07181 9.6154 8.08875 9.65965 8.11884C9.7039 8.14893 9.73866 8.19092 9.75999 8.23999L10.3401 9.60999L11.82 9.73999C11.8734 9.7472 11.9238 9.76863 11.966 9.80206C12.0083 9.83549 12.0408 9.87969 12.06 9.92999C12.075 9.98099 12.0754 10.0351 12.0613 10.0864C12.0471 10.1376 12.0189 10.1838 11.98 10.22Z" fill="#111A18"/>
</svg>
