<svg width="20" height="20" viewBox="0 0 20 20" fill="none" xmlns="http://www.w3.org/2000/svg">
<path d="M9.475 13.2391L14.7143 4.16414V3.14286C14.7143 1.95957 13.7547 1 12.5714 1H3.14286C1.95957 1 1 1.95957 1 3.14286V16.8571C1 18.0404 1.95957 19 3.14286 19H12.5714C13.7547 19 14.7143 18.0404 14.7143 16.8571V12.7364L13.1869 15.3824C12.961 15.7729 12.6434 16.1097 12.268 16.357L11.1331 17.107C10.9073 17.2561 10.6463 17.335 10.3784 17.335C10.0013 17.335 9.63657 17.1769 9.37643 16.9009C9.11629 16.624 8.98557 16.2614 9.00872 15.88L9.08971 14.5223C9.11671 14.0719 9.25 13.6283 9.475 13.2387V13.2391ZM3.57143 3.57143H7.42857C7.66557 3.57143 7.85714 3.76343 7.85714 4C7.85714 4.23657 7.66557 4.42857 7.42857 4.42857H3.57143C3.33443 4.42857 3.14286 4.23657 3.14286 4C3.14286 3.76343 3.33443 3.57143 3.57143 3.57143ZM3.57143 6.14286H11.41C11.647 6.14286 11.8386 6.33486 11.8386 6.57143C11.8386 6.808 11.647 7 11.41 7H3.57143C3.33443 7 3.14286 6.808 3.14286 6.57143C3.14286 6.33486 3.33443 6.14286 3.57143 6.14286ZM7.58286 16.4286H7C6.85686 16.4286 6.72314 16.357 6.64386 16.2383L6.14243 15.4883L5.86943 15.8993C5.728 16.102 5.49957 16.2087 5.26043 16.1804C5.02643 16.1539 4.82629 16.0017 4.738 15.7836L4.42857 15.0109L3.96914 16.1594C3.90229 16.327 3.74114 16.429 3.571 16.429C3.51786 16.429 3.46429 16.4191 3.412 16.3981C3.19214 16.3103 3.085 16.0609 3.17286 15.841L3.63143 14.6924C3.76471 14.3641 4.07671 14.1529 4.42771 14.1529C4.77871 14.1529 5.09114 14.3641 5.22314 14.6907L5.38086 15.085L5.42929 15.0126C5.584 14.7739 5.85143 14.6286 6.14157 14.6286C6.43171 14.6286 6.69914 14.7734 6.85686 15.0169L7.22757 15.5714H7.58157C7.81857 15.5714 8.01014 15.7634 8.01014 16C8.01014 16.2366 7.81857 16.4286 7.58157 16.4286H7.58286ZM8.44 12.1429H3.57143C3.33443 12.1429 3.14286 11.9509 3.14286 11.7143C3.14286 11.4777 3.33443 11.2857 3.57143 11.2857H8.44C8.677 11.2857 8.86857 11.4777 8.86857 11.7143C8.86857 11.9509 8.677 12.1429 8.44 12.1429ZM3.57143 9.57143C3.33443 9.57143 3.14286 9.37943 3.14286 9.14286C3.14286 8.90629 3.33443 8.71429 3.57143 8.71429H9.92286C10.1599 8.71429 10.3514 8.90629 10.3514 9.14286C10.3514 9.37943 10.1599 9.57143 9.92286 9.57143H3.57143Z" fill="#111A18"/>
<path d="M17.4764 6.23756L18.0049 5.32214C18.289 4.83014 18.1201 4.20099 17.6286 3.91728L17.1833 3.66014C16.6913 3.37599 16.0621 3.54485 15.7784 4.03642L15.25 4.95185L17.4764 6.23756Z" fill="#111A18"/>
<path d="M14.8209 5.69414L10.2172 13.6681C10.0573 13.9446 9.9643 14.2549 9.94545 14.5733L9.86402 15.9314C9.83873 16.3544 10.3072 16.6249 10.6607 16.3913L11.7964 15.6417C12.063 15.4656 12.285 15.2303 12.4444 14.9534L17.0482 6.97943L14.8213 5.69372L14.8209 5.69414Z" fill="#111A18"/>
</svg>
