<svg width="20" height="20" viewBox="0 0 20 20" fill="none" xmlns="http://www.w3.org/2000/svg">
<path d="M10 0C7.34784 0 4.80432 1.05357 2.92896 2.92893C1.05359 4.8043 0 7.34784 0 10C0 12.6522 1.05359 15.1957 2.92896 17.0711C4.80432 18.9464 7.34784 20 10 20C12.6522 20 15.1957 18.9464 17.071 17.0711C18.9464 15.1957 20 12.6522 20 10C20 7.34784 18.9464 4.8043 17.071 2.92893C15.1957 1.05357 12.6522 0 10 0ZM10 18.334C7.78969 18.334 5.66986 17.456 4.10693 15.893C2.54401 14.3301 1.66602 12.2103 1.66602 10C1.66602 8.90561 1.8817 7.82194 2.30054 6.81087C2.71937 5.7998 3.33328 4.88113 4.10718 4.10733C4.88107 3.33353 5.79967 2.71974 6.81079 2.30103C7.82191 1.88231 8.90561 1.66687 10 1.667C12.21 1.667 14.3296 2.54494 15.8923 4.10768C17.4551 5.67042 18.333 7.78995 18.333 10C18.3331 11.0944 18.1177 12.1781 17.699 13.1892C17.2803 14.2003 16.6666 15.1191 15.8928 15.893C15.119 16.6669 14.2003 17.2808 13.1892 17.6996C12.1781 18.1184 11.0944 18.334 10 18.334Z" fill="#4B4C6F"/>
<path d="M8.92212 5.244C8.7659 5.08779 8.55392 5.00003 8.33301 5.00003C8.11209 5.00003 7.90036 5.08779 7.74414 5.244C7.66665 5.32136 7.60494 5.41325 7.56299 5.5144C7.52104 5.61556 7.49951 5.72399 7.49951 5.8335C7.49951 5.943 7.52104 6.05143 7.56299 6.15258C7.60494 6.25373 7.66665 6.34563 7.74414 6.423L11.321 9.99999L7.74414 13.578C7.66656 13.6552 7.605 13.747 7.56299 13.8481C7.52098 13.9491 7.49927 14.0575 7.49927 14.167C7.49927 14.2765 7.52098 14.3848 7.56299 14.4859C7.605 14.587 7.66656 14.6788 7.74414 14.756C7.82142 14.8335 7.91309 14.8949 8.01416 14.9369C8.11523 14.9788 8.22358 15.0004 8.33301 15.0004C8.44243 15.0004 8.55079 14.9788 8.65186 14.9369C8.75293 14.8949 8.84484 14.8335 8.92212 14.756L13.0891 10.59C13.2451 10.4335 13.3328 10.2215 13.3328 10.0005C13.3328 9.7795 13.2451 9.56751 13.0891 9.411L8.92212 5.244Z" fill="#4B4C6F"/>
</svg>
