<svg width="18" height="16" viewBox="0 0 18 16" fill="none" xmlns="http://www.w3.org/2000/svg">
<path d="M12.5484 3.36971H4.44714L5.3647 0.566843C5.41655 0.40781 5.51738 0.269256 5.65277 0.171031C5.78817 0.0728048 5.95116 0.0199417 6.11843 0.0200043H10.8734C11.0407 0.0199417 11.2037 0.0728048 11.3391 0.171031C11.4745 0.269256 11.5753 0.40781 11.6272 0.566843L12.5484 3.36971Z" fill="url(#paint0_linear_168_4)"/>
<path d="M4.45154 3.36971H12.5528L11.8414 1.19469H5.16743L4.45154 3.36971Z" fill="url(#paint1_linear_168_4)"/>
<path d="M11.4907 3.27811H5.50903L6.18623 1.20701C6.22467 1.08948 6.29939 0.987087 6.3995 0.914497C6.49961 0.841906 6.62003 0.802829 6.74369 0.802826H10.2563C10.38 0.802829 10.5004 0.841906 10.6005 0.914497C10.7006 0.987087 10.7753 1.08948 10.8138 1.20701L11.4907 3.27811Z" fill="url(#paint2_linear_168_4)"/>
<path d="M11.4907 3.27811H5.50903L6.18623 1.20701C6.22467 1.08948 6.29939 0.987087 6.3995 0.914497C6.49961 0.841906 6.62003 0.802829 6.74369 0.802826H10.2563C10.38 0.802829 10.5004 0.841906 10.6005 0.914497C10.7006 0.987087 10.7753 1.08948 10.8138 1.20701L11.4907 3.27811Z" fill="url(#paint3_linear_168_4)"/>
<path d="M5.50903 3.27811H11.4907L11.0206 1.83925H5.97942L5.50903 3.27811Z" fill="url(#paint4_linear_168_4)"/>
<path d="M4.44709 3.55992H1.77881V2.37343C1.77881 2.21632 1.8405 2.06565 1.95031 1.95457C2.06012 1.84348 2.20907 1.78107 2.36437 1.78107H3.85895C4.01433 1.78107 4.16327 1.84345 4.27322 1.95451C4.38317 2.06557 4.44514 2.21624 4.44537 2.37343V3.55992H4.44709Z" fill="url(#paint5_linear_168_4)"/>
<path d="M4.44709 3.55992H1.77881V2.37343C1.77881 2.21632 1.8405 2.06565 1.95031 1.95457C2.06012 1.84348 2.20907 1.78107 2.36437 1.78107H3.85895C4.01433 1.78107 4.16327 1.84345 4.27322 1.95451C4.38317 2.06557 4.44514 2.21624 4.44537 2.37343V3.55992H4.44709Z" fill="url(#paint6_linear_168_4)"/>
<path d="M16.4713 15.8464H1.31806C0.968703 15.8464 0.633752 15.7077 0.386721 15.4606C0.139691 15.2136 0.000854492 14.8786 0.000854492 14.5292V6.6231H17.7894V14.5292C17.7891 14.8786 17.65 15.2137 17.4029 15.4607C17.1557 15.7077 16.8207 15.8464 16.4713 15.8464Z" fill="#FF507D"/>
<path d="M11.9743 13.9297C12.8599 13.3484 13.5622 12.5273 13.9991 11.5622C14.4361 10.597 14.59 9.52758 14.4425 8.47844C14.2679 7.25098 13.6917 6.11588 12.804 5.25037C11.9163 4.38486 10.767 3.83767 9.53549 3.69421C8.75119 3.60437 7.95674 3.68126 7.20422 3.91986C6.45171 4.15845 5.75817 4.55335 5.16892 5.07869C4.57967 5.60404 4.10809 6.24796 3.78506 6.96827C3.46202 7.68859 3.29469 8.46903 3.29431 9.25846C3.29402 10.1821 3.52287 11.0914 3.96029 11.905C4.39771 12.7185 5.03014 13.4108 5.80082 13.9199C5.86154 13.9582 5.90805 14.0151 5.93349 14.0822C5.95894 14.1493 5.96185 14.2228 5.94174 14.2917C5.92163 14.3606 5.87964 14.421 5.8221 14.4639C5.76455 14.5067 5.69472 14.5297 5.62297 14.5292H4.60804C3.73524 14.5292 2.89827 14.1825 2.28111 13.5653C1.66395 12.9482 1.3172 12.1111 1.3172 11.2383V6.62665H0V14.5328C0 14.8821 0.138619 15.2172 0.38565 15.4642C0.63268 15.7112 0.967849 15.85 1.3172 15.85H16.4702C16.8197 15.85 17.1548 15.7112 17.402 15.4642C17.6492 15.2172 17.7883 14.8822 17.7885 14.5328H12.1601C12.0889 14.5342 12.019 14.5124 11.9612 14.4706C11.9034 14.4289 11.8608 14.3694 11.8398 14.3013C11.8188 14.2332 11.8206 14.1601 11.8448 14.093C11.8691 14.026 11.9145 13.9687 11.9743 13.9297Z" fill="#D23C69"/>
<path d="M16.4714 2.67049H1.31818C0.968825 2.67049 0.633874 2.80927 0.386843 3.0563C0.139813 3.30333 0.000976562 3.63838 0.000976562 3.98773V6.95218H17.7895V3.98773C17.7893 3.63829 17.6502 3.30325 17.403 3.05624C17.1558 2.80924 16.8209 2.67049 16.4714 2.67049Z" fill="#D5DCED"/>
<path d="M13.9941 6.95218C13.5506 5.97142 12.8337 5.13935 11.9293 4.55567C11.0249 3.972 9.97151 3.66147 8.89513 3.66131C7.81877 3.66207 6.76538 3.97282 5.86096 4.55642C4.95654 5.14002 4.23926 5.97176 3.79504 6.95218H13.9941Z" fill="#C7CFE2"/>
<path d="M8.89502 14.201C11.6242 14.201 13.8367 11.9886 13.8367 9.25935C13.8367 6.53015 11.6242 4.3177 8.89502 4.3177C6.16582 4.3177 3.95337 6.53015 3.95337 9.25935C3.95337 11.9886 6.16582 14.201 8.89502 14.201Z" fill="#707487"/>
<path d="M8.89426 13.2111C11.0772 13.2111 12.8469 11.4414 12.8469 9.25847C12.8469 7.07551 11.0772 5.30586 8.89426 5.30586C6.71129 5.30586 4.94165 7.07551 4.94165 9.25847C4.94165 11.4414 6.71129 13.2111 8.89426 13.2111Z" fill="#464655"/>
<path d="M8.8987 11.8947C8.19997 11.894 7.5301 11.6161 7.03603 11.1221C6.54196 10.628 6.26413 9.95808 6.26343 9.25935C6.26413 8.56063 6.54196 7.89073 7.03603 7.39666C7.5301 6.90258 8.19997 6.62469 8.8987 6.62399C9.59736 6.62493 10.2671 6.90289 10.7612 7.39691C11.2552 7.89094 11.5333 8.5607 11.5342 9.25935C11.5333 9.95801 11.2552 10.6278 10.7612 11.1218C10.2671 11.6158 9.59736 11.8938 8.8987 11.8947ZM8.8987 7.28305C8.37461 7.28352 7.87226 7.49186 7.50159 7.86236C7.13092 8.23287 6.9223 8.73527 6.92159 9.25935C6.9223 9.78344 7.13092 10.2859 7.50159 10.6564C7.87226 11.0269 8.37461 11.2352 8.8987 11.2357C9.42263 11.235 9.9249 11.0265 10.2954 10.656C10.6659 10.2856 10.8745 9.78329 10.8752 9.25935C10.8747 8.73527 10.6663 8.23277 10.2958 7.86211C9.92531 7.49144 9.42279 7.28375 8.8987 7.28305Z" fill="#5B5D6E"/>
<path d="M15.6477 5.63496C16.1026 5.63496 16.4713 5.26622 16.4713 4.81135C16.4713 4.35648 16.1026 3.98774 15.6477 3.98774C15.1928 3.98774 14.8241 4.35648 14.8241 4.81135C14.8241 5.26622 15.1928 5.63496 15.6477 5.63496Z" fill="#707487"/>
<path d="M1.31818 2.67049C0.968825 2.67049 0.633874 2.80927 0.386843 3.0563C0.139813 3.30333 0.000976562 3.63838 0.000976562 3.98773V6.95218H1.31818V2.67049Z" fill="#C7CFE2"/>
<path d="M10.377 8.5994C10.8318 8.5994 11.2006 8.23066 11.2006 7.7758C11.2006 7.32093 10.8318 6.95219 10.377 6.95219C9.92209 6.95219 9.55334 7.32093 9.55334 7.7758C9.55334 8.23066 9.92209 8.5994 10.377 8.5994Z" fill="white"/>
<path d="M7.74245 10.9066C8.01556 10.9066 8.23697 10.6852 8.23697 10.4121C8.23697 10.1389 8.01556 9.91753 7.74245 9.91753C7.46933 9.91753 7.24792 10.1389 7.24792 10.4121C7.24792 10.6852 7.46933 10.9066 7.74245 10.9066Z" fill="white"/>
<defs>
<linearGradient id="paint0_linear_168_4" x1="16.9798" y1="398.163" x2="17.4623" y2="395.348" gradientUnits="userSpaceOnUse">
<stop stop-color="#5A5A5A"/>
<stop offset="1" stop-color="#464646"/>
</linearGradient>
<linearGradient id="paint1_linear_168_4" x1="17.6647" y1="398.264" x2="17.6647" y2="396.89" gradientUnits="userSpaceOnUse">
<stop stop-color="#464646" stop-opacity="0"/>
<stop offset="0.332" stop-color="#3E3E3E" stop-opacity="0.333"/>
<stop offset="0.85" stop-color="#282828" stop-opacity="0.851"/>
<stop offset="1" stop-color="#202020"/>
</linearGradient>
<linearGradient id="paint2_linear_168_4" x1="16.5872" y1="398.386" x2="17.0022" y2="395.965" gradientUnits="userSpaceOnUse">
<stop stop-color="#EEF4FF"/>
<stop offset="1" stop-color="#CFE7FD"/>
</linearGradient>
<linearGradient id="paint3_linear_168_4" x1="17.6519" y1="397.854" x2="17.6519" y2="396.957" gradientUnits="userSpaceOnUse">
<stop stop-color="#8AAADC" stop-opacity="0"/>
<stop offset="1" stop-color="#8AAADC"/>
</linearGradient>
<linearGradient id="paint4_linear_168_4" x1="17.7177" y1="396.853" x2="17.7742" y2="399.418" gradientUnits="userSpaceOnUse">
<stop stop-color="#8AAADC" stop-opacity="0"/>
<stop offset="1" stop-color="#8AAADC"/>
</linearGradient>
<linearGradient id="paint5_linear_168_4" x1="11.4967" y1="401.747" x2="12.191" y2="400.167" gradientUnits="userSpaceOnUse">
<stop stop-color="#F7E07D"/>
<stop offset="1" stop-color="#E69642"/>
</linearGradient>
<linearGradient id="paint6_linear_168_4" x1="12.1718" y1="401.383" x2="12.2448" y2="400.563" gradientUnits="userSpaceOnUse">
<stop stop-color="#D52C1C" stop-opacity="0"/>
<stop offset="0.28" stop-color="#D12C1E" stop-opacity="0.278"/>
<stop offset="0.573" stop-color="#C42C23" stop-opacity="0.573"/>
<stop offset="0.872" stop-color="#AF2B2C" stop-opacity="0.871"/>
<stop offset="1" stop-color="#A42B31"/>
</linearGradient>
</defs>
</svg>
