<svg width="341" height="58" viewBox="0 0 341 58" fill="none" xmlns="http://www.w3.org/2000/svg">
<path d="M142.5 57.416H4.39403C3.34106 57.3955 2.33935 56.9577 1.60912 56.1988C0.878898 55.4398 0.479905 54.422 0.499991 53.369V4.57899C0.480174 3.52618 0.879171 2.50858 1.60937 1.74989C2.33956 0.991188 3.34123 0.553481 4.39403 0.53299H162.5L142.5 57.416Z" fill="white"/>
<path d="M340.5 4.58398V53.364C340.5 54.4249 340.079 55.4423 339.328 56.1924C338.578 56.9426 337.561 57.364 336.5 57.364H142.52L162.48 0.583984H336.5C337.561 0.583984 338.578 1.00541 339.328 1.75555C340.079 2.5057 340.5 3.52312 340.5 4.58398Z" fill="#1E1F4B"/>
<path opacity="0.2" d="M165.5 0.584991L145.5 57.365H142.5L162.5 0.584991H165.5Z" fill="white"/>
</svg>
