<svg width="47" height="48" viewBox="0 0 47 48" fill="none" xmlns="http://www.w3.org/2000/svg">
<path d="M46.7629 24.249C46.7629 30.4263 44.3093 36.3505 39.9414 40.7186C35.5735 45.0866 29.6492 47.5407 23.4719 47.541C17.2945 47.541 11.3701 45.087 7.00195 40.7189C2.63386 36.3508 0.179932 30.4264 0.179932 24.249C0.180197 18.0718 2.63437 12.1476 7.00244 7.77972C11.3705 3.41184 17.2947 0.958008 23.4719 0.958008C26.5305 0.958008 29.5592 1.56041 32.385 2.7309C35.2108 3.90138 37.7784 5.61702 39.9412 7.77979C42.1039 9.94255 43.8195 12.5101 44.99 15.3359C46.1605 18.1617 46.7629 21.1904 46.7629 24.249Z" fill="#EC5C7A"/>
</svg>
