<svg width="19" height="24" viewBox="0 0 19 24" fill="none" xmlns="http://www.w3.org/2000/svg">
<path d="M17.487 2.91449H13.1152V2.42874C13.1152 1.08953 12.0257 0 10.6865 0H7.77198C6.43277 0 5.34324 1.08953 5.34324 2.42874V2.91449H0.971497C0.435231 2.91449 0 3.34972 0 3.88599V5.34324C0 5.8795 0.435231 6.31473 0.971497 6.31473H17.487C18.0232 6.31473 18.4584 5.8795 18.4584 5.34324V3.88599C18.4584 3.34972 18.0232 2.91449 17.487 2.91449ZM7.28623 2.42874C7.28623 2.1611 7.50433 1.94299 7.77198 1.94299H10.6865C10.9541 1.94299 11.1722 2.1611 11.1722 2.42874V2.91449H7.28623V2.42874Z" fill="#FC3A84"/>
<path d="M17.1374 7.60441C16.9533 7.40185 16.6919 7.28624 16.4185 7.28624H2.0403C1.76683 7.28624 1.50549 7.40185 1.3214 7.60441C1.1373 7.80696 1.04743 8.07801 1.07318 8.35051L2.26715 20.8284C2.40267 22.2468 3.65056 23.3164 5.16998 23.3164H13.2888C14.8077 23.3164 16.0561 22.2468 16.1916 20.8284L17.3856 8.35051C17.4118 8.07801 17.3215 7.80696 17.1374 7.60441ZM6.95899 20.8853C6.93811 20.8862 6.91771 20.8872 6.89682 20.8872C6.38824 20.8872 5.96078 20.4918 5.92824 19.9769L5.34534 10.7477C5.31182 10.2124 5.71839 9.75093 6.25369 9.71693C6.79044 9.68778 7.25093 10.09 7.28445 10.6253L7.86734 19.8545C7.90086 20.3898 7.49429 20.8513 6.95899 20.8853ZM12.5305 19.9769C12.498 20.4918 12.0705 20.8872 11.5619 20.8872C11.5415 20.8872 11.5207 20.8867 11.4998 20.8853C10.964 20.8513 10.5579 20.3898 10.5914 19.8545L11.1743 10.6253C11.2083 10.0895 11.6674 9.68681 12.2051 9.71693C12.7409 9.75093 13.1469 10.2124 13.1134 10.7477L12.5305 19.9769Z" fill="#FC3A84"/>
</svg>
