<svg width="16" height="10" viewBox="0 0 16 10" fill="none" xmlns="http://www.w3.org/2000/svg">
<path d="M8.34692 9.25403C8.20896 9.25433 8.07221 9.22737 7.9447 9.17468C7.81719 9.122 7.70139 9.04462 7.60388 8.94702L1.15491 2.49701C0.95791 2.29992 0.847168 2.03269 0.847168 1.75403C0.847168 1.47537 0.95791 1.20807 1.15491 1.01099C1.25241 0.913473 1.36808 0.83616 1.49548 0.783386C1.62288 0.730612 1.75944 0.70343 1.89734 0.70343C2.03524 0.70343 2.1718 0.730612 2.29919 0.783386C2.42659 0.83616 2.54239 0.913473 2.63989 1.01099L8.34692 6.71802L14.0538 1.01202C14.1512 0.914272 14.267 0.836677 14.3944 0.783752C14.5218 0.730828 14.6584 0.703613 14.7964 0.703613C14.9344 0.703613 15.0709 0.730828 15.1984 0.783752C15.3258 0.836677 15.4414 0.914272 15.5388 1.01202C15.6366 1.10939 15.7142 1.22506 15.7671 1.35248C15.82 1.47989 15.8473 1.61655 15.8473 1.75452C15.8473 1.89249 15.82 2.02908 15.7671 2.15649C15.7142 2.28391 15.6366 2.39964 15.5388 2.49701L9.08984 8.94702C8.99233 9.04462 8.87653 9.122 8.74902 9.17468C8.62151 9.22737 8.48489 9.25433 8.34692 9.25403Z" fill="#B0B0C7"/>
</svg>
