<svg width="44" height="44" viewBox="0 0 44 44" fill="none" xmlns="http://www.w3.org/2000/svg">
<path d="M43.1001 23.021L36.3731 29.748C36.1194 29.9967 35.7783 30.136 35.4231 30.136C35.0678 30.136 34.7268 29.9967 34.4731 29.748C34.4313 29.7047 34.3928 29.6582 34.3581 29.609C34.1739 29.3362 34.0929 29.0068 34.1295 28.6797C34.1662 28.3526 34.3181 28.0492 34.5581 27.824L38.2672 24.103C38.4654 23.9013 38.6946 23.7325 38.9461 23.603L39.3461 23.419H23.3351V39.4L23.4731 39.112C23.6012 38.825 23.7855 38.5666 24.0151 38.352L27.7241 34.632C27.9495 34.3922 28.2528 34.2404 28.5798 34.2037C28.9069 34.1671 29.2363 34.248 29.5092 34.432C29.6524 34.5355 29.7736 34.6664 29.8657 34.8172C29.9579 34.968 30.0191 35.1356 30.0459 35.3102C30.0727 35.4849 30.0646 35.6631 30.0219 35.8346C29.9791 36.0061 29.9027 36.1673 29.7971 36.309C29.7624 36.3583 29.724 36.4047 29.6821 36.448L22.9551 43.175C22.8309 43.3008 22.683 43.4007 22.5199 43.4688C22.3568 43.537 22.1819 43.5721 22.0051 43.5721C21.8284 43.5721 21.6534 43.537 21.4904 43.4688C21.3273 43.4007 21.1794 43.3008 21.0552 43.175L14.3281 36.448C14.0794 36.1943 13.9401 35.8532 13.9401 35.498C13.9401 35.1427 14.0794 34.8016 14.3281 34.548C14.3716 34.5064 14.4181 34.4679 14.4672 34.433C14.7399 34.2488 15.0694 34.1678 15.3965 34.2044C15.7236 34.2411 16.0268 34.393 16.2521 34.633L19.9731 38.342C20.1731 38.5407 20.3401 38.7699 20.4681 39.021L20.6521 39.421V23.421H4.66406L5.06409 23.605C5.31048 23.7373 5.53573 23.9059 5.73218 24.105L9.44116 27.826C9.68098 28.0513 9.83274 28.3547 9.86938 28.6817C9.90603 29.0087 9.82511 29.3382 9.64111 29.611C9.60641 29.6602 9.56797 29.7067 9.52612 29.75C9.27245 29.9987 8.93142 30.138 8.57617 30.138C8.22092 30.138 7.87977 29.9987 7.6261 29.75L0.89917 23.023C0.773635 22.8987 0.673965 22.7507 0.605957 22.5876C0.537949 22.4246 0.50293 22.2497 0.50293 22.073C0.50293 21.8963 0.537949 21.7214 0.605957 21.5583C0.673965 21.3953 0.773635 21.2473 0.89917 21.123L7.6261 14.396C7.66964 14.3544 7.71613 14.316 7.76514 14.281C7.90677 14.1753 8.06802 14.0988 8.2395 14.056C8.41099 14.0132 8.58922 14.005 8.76392 14.0318C8.93861 14.0586 9.10631 14.1199 9.25708 14.2121C9.40785 14.3044 9.53868 14.4256 9.64209 14.569C9.82609 14.8418 9.907 15.1713 9.87036 15.4983C9.83372 15.8253 9.68196 16.1287 9.44214 16.354L5.72217 20.063C5.50759 20.2926 5.24916 20.4769 4.96216 20.605L4.67407 20.743H20.6501V4.74301L20.4661 5.14301C20.3351 5.389 20.1683 5.61413 19.9711 5.811L16.2501 9.521C16.0248 9.76082 15.7214 9.91264 15.3944 9.94928C15.0674 9.98592 14.7379 9.90501 14.4651 9.72101C14.4161 9.68605 14.3697 9.6476 14.3262 9.60599C14.0772 9.35244 13.9377 9.01133 13.9377 8.65601C13.9377 8.30068 14.0772 7.95954 14.3262 7.70599L21.0531 0.977997C21.1774 0.852462 21.3255 0.752823 21.4885 0.684814C21.6516 0.616806 21.8265 0.581787 22.0032 0.581787C22.1798 0.581787 22.3548 0.616806 22.5178 0.684814C22.6809 0.752823 22.8288 0.852462 22.9531 0.977997L29.6802 7.70599C29.722 7.74895 29.7605 7.79509 29.7952 7.84399C29.9009 7.98562 29.9774 8.14688 30.0201 8.31836C30.0629 8.48984 30.0711 8.66814 30.0443 8.84283C30.0175 9.01753 29.9562 9.18514 29.864 9.33591C29.7718 9.48667 29.6504 9.61759 29.5071 9.72101C29.2342 9.90481 28.9049 9.98561 28.5779 9.94897C28.2509 9.91234 27.9476 9.76064 27.7222 9.521L24.0131 5.79999C23.7834 5.58541 23.5991 5.32701 23.4711 5.04001L23.3331 4.75201V20.74H39.3211L39.0331 20.602C38.7461 20.4739 38.4877 20.2896 38.2731 20.06L34.5531 16.351C34.3131 16.1258 34.1612 15.8224 34.1245 15.4953C34.0879 15.1682 34.1689 14.8387 34.3531 14.566C34.4566 14.4227 34.5875 14.3014 34.7382 14.2091C34.889 14.1169 35.0566 14.0556 35.2313 14.0288C35.406 14.002 35.5843 14.0102 35.7557 14.053C35.9272 14.0958 36.0885 14.1723 36.2301 14.278C36.2791 14.313 36.3256 14.3514 36.3691 14.393L43.0961 21.12C43.2221 21.2441 43.3222 21.3919 43.3906 21.5549C43.4591 21.7179 43.4945 21.8928 43.4949 22.0696C43.4952 22.2464 43.4605 22.4215 43.3928 22.5848C43.325 22.7481 43.2255 22.8964 43.1001 23.021Z" fill="#F9F9F9"/>
</svg>
