<svg width="21" height="21" viewBox="0 0 21 21" fill="none" xmlns="http://www.w3.org/2000/svg">
<path d="M20.03 1.58002C19.7289 1.27808 19.3711 1.03852 18.9772 0.875061C18.5834 0.711607 18.1614 0.627441 17.7351 0.627441C17.3087 0.627441 16.8864 0.711607 16.4926 0.875061C16.0988 1.03852 15.741 1.27808 15.4399 1.58002C15.2999 1.71002 2.40984 14.61 2.38984 14.63C2.33178 14.6897 2.28754 14.7614 2.25996 14.84C2.24996 14.88 2.32995 14.55 0.999945 19.89C0.977773 19.9767 0.97577 20.0672 0.994086 20.1548C1.0124 20.2423 1.05061 20.3245 1.10566 20.395C1.16071 20.4655 1.23121 20.5225 1.31171 20.5615C1.39221 20.6005 1.48057 20.6205 1.57001 20.62C1.67001 20.62 1.23991 20.72 6.70991 19.35C6.74769 19.3447 6.78476 19.3346 6.82001 19.32C6.96001 19.25 6.05997 20.13 20.03 6.15997C20.6353 5.55153 20.975 4.72823 20.975 3.87C20.975 3.01176 20.6353 2.18846 20.03 1.58002ZM17.85 6.67999L14.9199 3.76001L15.6498 3.02002L18.58 5.95001L17.85 6.67999ZM19.3998 5.09998L16.4999 2.21002C16.8992 1.9142 17.3916 1.77164 17.8872 1.80835C18.3827 1.84506 18.8485 2.05855 19.1999 2.40997C19.5493 2.76043 19.7616 3.22447 19.7983 3.71796C19.835 4.21144 19.6935 4.70171 19.3998 5.09998Z" fill="#838786"/>
</svg>
