<svg width="11" height="17" viewBox="0 0 11 17" fill="none" xmlns="http://www.w3.org/2000/svg">
<path d="M10.428 6.82097C10.3989 6.76971 10.3567 6.72712 10.3058 6.69744C10.2549 6.66775 10.1969 6.65203 10.138 6.65196H5.77102L6.50308 1.05901C6.50765 1.01507 6.50348 0.970663 6.49087 0.928331C6.47826 0.885999 6.45746 0.846576 6.42959 0.812303C6.40173 0.778031 6.36738 0.749548 6.32852 0.728563C6.28965 0.707578 6.24697 0.694485 6.20303 0.689989C6.14154 0.68344 6.0795 0.69409 6.02371 0.720751C5.96792 0.747411 5.92052 0.789036 5.88699 0.84099L0.576076 10.141C0.529862 10.2164 0.515413 10.3072 0.536037 10.3932C0.556661 10.4793 0.610659 10.5536 0.686062 10.6C0.738455 10.632 0.79861 10.6489 0.860012 10.649H5.16006L4.57998 16.249C4.57643 16.2929 4.58166 16.337 4.59524 16.3789C4.60882 16.4208 4.63058 16.4596 4.65921 16.493C4.68783 16.5265 4.72271 16.554 4.76199 16.5739C4.80127 16.5938 4.84406 16.6057 4.88797 16.609C4.94871 16.6138 5.00965 16.6019 5.06411 16.5746C5.11858 16.5473 5.16458 16.5055 5.19705 16.454L10.4201 7.15398C10.4496 7.1029 10.465 7.04499 10.465 6.98601C10.465 6.92703 10.4496 6.86906 10.4201 6.81798L10.428 6.82097Z" fill="#B0B0C7"/>
</svg>
