<svg width="11" height="17" viewBox="0 0 11 17" fill="none" xmlns="http://www.w3.org/2000/svg">
<path d="M10.428 6.32097C10.3989 6.26971 10.3567 6.22712 10.3058 6.19744C10.2549 6.16775 10.1969 6.15203 10.138 6.15196H5.77102L6.50308 0.559007C6.50765 0.515074 6.50348 0.470663 6.49087 0.428331C6.47826 0.385999 6.45746 0.346576 6.42959 0.312303C6.40173 0.278031 6.36738 0.249548 6.32852 0.228563C6.28965 0.207578 6.24697 0.194485 6.20303 0.189989C6.14154 0.18344 6.0795 0.19409 6.02371 0.220751C5.96792 0.247411 5.92052 0.289036 5.88699 0.34099L0.576076 9.64098C0.529862 9.71645 0.515413 9.80718 0.536037 9.89324C0.556661 9.9793 0.610659 10.0536 0.686062 10.1C0.738455 10.132 0.79861 10.1489 0.860012 10.149H5.16006L4.57998 15.749C4.57643 15.7929 4.58166 15.837 4.59524 15.8789C4.60882 15.9208 4.63058 15.9596 4.65921 15.993C4.68783 16.0265 4.72271 16.054 4.76199 16.0739C4.80127 16.0938 4.84406 16.1057 4.88797 16.109C4.94871 16.1138 5.00965 16.1019 5.06411 16.0746C5.11858 16.0473 5.16458 16.0055 5.19705 15.954L10.4201 6.65398C10.4496 6.6029 10.465 6.54499 10.465 6.48601C10.465 6.42703 10.4496 6.36906 10.4201 6.31798L10.428 6.32097Z" fill="#FF4F79"/>
</svg>
