<svg width="21" height="15" viewBox="0 0 21 15" fill="none" xmlns="http://www.w3.org/2000/svg">
<path d="M19.213 10.905C19.3234 10.8239 19.4167 10.7219 19.4877 10.6047C19.5586 10.4875 19.6057 10.3575 19.6263 10.222C19.6469 10.0866 19.6408 9.94848 19.608 9.81549C19.5752 9.6825 19.5164 9.55729 19.4352 9.44702C19.3262 9.29824 19.1794 9.18117 19.0101 9.10797V7.67499L18.1722 8.03101V9.10797C17.9186 9.21804 17.7188 9.4242 17.6171 9.68121C17.5153 9.93823 17.5196 10.2252 17.629 10.479C17.7026 10.6486 17.82 10.7957 17.9691 10.905C17.8374 11.0015 17.7302 11.1276 17.6564 11.2732C17.5825 11.4188 17.5441 11.5797 17.5441 11.743V12.79C17.5441 12.9011 17.5883 13.0077 17.6669 13.0863C17.7454 13.1649 17.8519 13.209 17.963 13.209H19.2191C19.3302 13.209 19.4369 13.1649 19.5155 13.0863C19.5941 13.0077 19.638 12.9011 19.638 12.79V11.743C19.638 11.5797 19.5996 11.4188 19.5257 11.2732C19.4519 11.1276 19.3447 11.0015 19.213 10.905Z" fill="#838786"/>
<path d="M16.9151 8.56299V11.663C16.9175 12.0234 16.8261 12.3781 16.6499 12.6925C16.4737 13.0069 16.2186 13.27 15.9099 13.456C14.3082 14.3917 12.4867 14.8848 10.6316 14.8848C8.77659 14.8848 6.95483 14.3917 5.35306 13.456C5.0444 13.2699 4.78943 13.0068 4.61307 12.6925C4.43671 12.3782 4.34493 12.0234 4.34696 11.663V8.56299L9.48807 10.737C9.85014 10.889 10.2389 10.9673 10.6316 10.9673C11.0243 10.9673 11.4129 10.889 11.7749 10.737L16.9151 8.56299Z" fill="#838786"/>
<path d="M19.8631 4.09198L11.4471 0.531006C11.1887 0.421957 10.9112 0.365784 10.6307 0.365784C10.3502 0.365784 10.0725 0.421957 9.81405 0.531006L1.39804 4.09198C1.09109 4.22186 0.848253 4.46837 0.722986 4.77722C0.59772 5.08608 0.600312 5.43202 0.730067 5.73901C0.857497 6.04001 1.09704 6.27955 1.39804 6.40698L9.81405 9.96802C10.0725 10.0771 10.3502 10.1332 10.6307 10.1332C10.9112 10.1332 11.1887 10.0771 11.4471 9.96802L19.8631 6.40698C20.1701 6.2769 20.4129 6.03027 20.5382 5.72125C20.6634 5.41224 20.6609 5.06611 20.5311 4.75897C20.4036 4.45824 20.164 4.219 19.8631 4.09198Z" fill="#838786"/>
</svg>
