<svg width="21" height="17" viewBox="0 0 21 17" fill="none" xmlns="http://www.w3.org/2000/svg">
<path d="M17.4231 0.660999H3.25611C2.98322 0.660474 2.71277 0.713702 2.46046 0.817646C2.20814 0.92159 1.97874 1.07421 1.78541 1.2668C1.59208 1.45939 1.43866 1.68818 1.33375 1.9401C1.22883 2.19201 1.17461 2.46212 1.17408 2.735C1.17381 2.82867 1.1802 2.92223 1.19312 3.015C1.20003 3.06922 1.21745 3.12154 1.24464 3.16896C1.27182 3.21638 1.30803 3.25797 1.35133 3.29132C1.39463 3.32468 1.44429 3.34916 1.49708 3.36335C1.54986 3.37753 1.60475 3.38115 1.65894 3.374C1.71462 3.36706 1.7683 3.34905 1.8169 3.321C2.00065 3.21369 2.21033 3.15838 2.4231 3.161H5.38892C5.65009 3.1616 5.90456 3.2436 6.11695 3.39559C6.32934 3.54758 6.48914 3.762 6.57398 4.00901L6.64503 4.237C6.78491 4.651 7.0508 5.01083 7.40553 5.26603C7.76026 5.52122 8.18607 5.65899 8.62305 5.66001H18.2561C18.4744 5.66071 18.6886 5.71826 18.8779 5.827C18.9421 5.86416 19.015 5.88382 19.0891 5.88401C19.1997 5.88401 19.3056 5.84006 19.3838 5.76186C19.462 5.68366 19.5061 5.57759 19.5061 5.467V2.74401C19.5061 2.19156 19.2866 1.66175 18.896 1.27111C18.5054 0.880469 17.9755 0.660999 17.4231 0.660999Z" fill="#FFA000"/>
<path d="M19.3 5.109C18.9832 4.92415 18.6229 4.82683 18.2561 4.827H8.62305C8.36188 4.8264 8.10741 4.7444 7.89502 4.59241C7.68263 4.44042 7.52283 4.22602 7.43799 3.97901L7.36694 3.75101C7.22632 3.3374 6.96026 2.97793 6.60571 2.72269C6.25117 2.46745 5.82577 2.32913 5.38892 2.327H2.4231C2.06515 2.32377 1.71288 2.41667 1.40308 2.596C1.08039 2.77663 0.811532 3.04003 0.624512 3.35906C0.437491 3.67808 0.339107 4.0412 0.339111 4.411V14.411C0.339376 14.9635 0.55891 15.4934 0.949707 15.884C1.3405 16.2746 1.87056 16.494 2.4231 16.494H18.2561C18.8085 16.4937 19.3379 16.2742 19.7285 15.8836C20.1191 15.493 20.3388 14.9634 20.3391 14.411V6.911C20.3406 6.54563 20.245 6.18639 20.0625 5.86986C19.88 5.55333 19.617 5.2908 19.3 5.109Z" fill="#FFC107"/>
<path fill-rule="evenodd" clip-rule="evenodd" d="M10.791 2.507C10.7909 2.4213 10.8076 2.33641 10.8403 2.25719C10.873 2.17797 10.9211 2.10597 10.9817 2.04532C11.0422 1.98467 11.1142 1.93656 11.1934 1.90373C11.2725 1.8709 11.3574 1.854 11.4431 1.854H17.1431C17.2288 1.854 17.3137 1.8709 17.3928 1.90373C17.472 1.93656 17.5439 1.98467 17.6045 2.04532C17.6651 2.10597 17.7129 2.17797 17.7456 2.25719C17.7783 2.33641 17.7951 2.4213 17.7949 2.507C17.7949 2.67992 17.7263 2.84576 17.604 2.96803C17.4817 3.09031 17.316 3.159 17.1431 3.159H11.4431C11.2702 3.159 11.1042 3.09031 10.9819 2.96803C10.8597 2.84576 10.791 2.67992 10.791 2.507Z" fill="white"/>
</svg>
