<svg width="20" height="20" viewBox="0 0 20 20" fill="none" xmlns="http://www.w3.org/2000/svg">
<path d="M10.6906 2.76986C10.7687 1.83682 11.4757 1.10029 12.3707 1.03807C12.9093 1.00115 13.6487 0.983576 14.6615 1.02647C15.6744 1.06936 16.4162 1.14986 16.96 1.23213C17.8604 1.371 18.6293 2.14022 18.7681 3.04022C18.8504 3.58408 18.9288 4.32623 18.9738 5.33873C19.0188 6.35123 18.9998 7.09057 18.9622 7.62951C18.8996 8.52459 18.1634 9.23158 17.2304 9.30963C16.6679 9.35533 15.9001 9.38768 14.8472 9.38451C13.7942 9.38135 13.0243 9.34479 12.4632 9.29416C12.0106 9.25389 11.5865 9.05575 11.2651 8.73442C10.9438 8.41308 10.7457 7.989 10.7054 7.53635C10.6548 6.97561 10.6179 6.20569 10.615 5.1524C10.6122 4.09912 10.6449 3.33061 10.6906 2.76986Z" fill="#111A18"/>
<path d="M1.22973 3.04016C1.3686 2.14016 2.13781 1.37094 3.03781 1.23207C3.58168 1.14981 4.32383 1.07141 5.33633 1.02641C6.34883 0.981407 7.08817 1.00039 7.62711 1.03801C8.52219 1.10024 9.22918 1.83676 9.30723 2.76981C9.35293 3.33231 9.38527 4.10012 9.38211 5.15305C9.37895 6.20598 9.34239 6.9759 9.29176 7.53699C9.25155 7.98967 9.05344 8.41379 8.73209 8.73514C8.41074 9.05649 7.98662 9.2546 7.53395 9.29481C6.97145 9.34543 6.20328 9.38235 5.15 9.38516C4.09672 9.38797 3.3275 9.35598 2.76676 9.31028C1.83406 9.23223 1.09754 8.52488 1.03496 7.63016C0.997345 7.09121 0.980471 6.35223 1.02336 5.33938C1.06625 4.32652 1.14746 3.58402 1.22973 3.04016Z" fill="#111A18"/>
<path d="M10.7057 12.4652C10.746 12.0125 10.9441 11.5884 11.2654 11.2671C11.5868 10.9457 12.0109 10.7476 12.4636 10.7074C13.0261 10.6568 13.7942 10.6198 14.8475 10.617C15.9008 10.6142 16.67 10.6462 17.2307 10.6919C18.1627 10.7707 18.8996 11.4777 18.9618 12.3727C18.9988 12.9117 19.0163 13.6507 18.9734 14.6635C18.9305 15.6764 18.85 16.4182 18.7678 16.962C18.6289 17.862 17.8597 18.6312 16.9597 18.7701C16.4169 18.8524 15.6747 18.9318 14.6622 18.9758C13.6497 19.0197 12.9104 19.0018 12.3714 18.9642C11.4771 18.902 10.7694 18.1651 10.6913 17.2324C10.6456 16.6716 10.6133 15.9021 10.6164 14.8491C10.6196 13.7962 10.6551 13.0245 10.7057 12.4652Z" fill="#111A18"/>
<path d="M1.03403 12.3727C1.09625 11.4784 1.83313 10.7707 2.76582 10.6926C3.32657 10.6469 4.09614 10.6146 5.14907 10.6177C6.202 10.6209 6.97227 10.6575 7.53301 10.7081C7.98569 10.7483 8.40981 10.9464 8.73116 11.2678C9.05251 11.5891 9.25062 12.0132 9.29082 12.4659C9.34145 13.0284 9.37836 13.7966 9.38118 14.8498C9.38399 15.9031 9.352 16.6723 9.30629 17.2331C9.22825 18.1658 8.52055 18.9027 7.62618 18.9649C7.08723 19.0025 6.34825 19.0194 5.33539 18.9765C4.32254 18.9336 3.58075 18.8531 3.03793 18.7708C2.13653 18.632 1.36766 17.8627 1.22879 16.9617C1.14653 16.4189 1.06707 15.6767 1.02313 14.6642C0.979183 13.6517 0.998871 12.9117 1.03403 12.3727Z" fill="#111A18"/>
</svg>
