<svg width="17" height="17" viewBox="0 0 17 17" fill="none" xmlns="http://www.w3.org/2000/svg">
<path d="M9.37903 1.17499C9.44016 1.18254 9.50215 1.17798 9.56152 1.16156C9.62089 1.14514 9.67641 1.11723 9.72498 1.07935C9.77354 1.04146 9.81424 0.994386 9.8446 0.940796C9.87497 0.887206 9.89443 0.828161 9.90198 0.767029C9.90966 0.705934 9.90517 0.643894 9.88879 0.584534C9.87242 0.525174 9.84456 0.469658 9.80664 0.421143C9.76872 0.372627 9.72149 0.332045 9.66785 0.301819C9.6142 0.271593 9.55516 0.252293 9.49402 0.244995C9.16496 0.193233 8.83295 0.162154 8.5 0.151978C6.38078 0.160142 4.3507 1.00563 2.85217 2.50415C1.35365 4.00268 0.508165 6.03276 0.5 8.15198C0.508165 10.2712 1.35365 12.3013 2.85217 13.7998C4.3507 15.2983 6.38078 16.1438 8.5 16.152C8.83295 16.1418 9.16495 16.1108 9.49402 16.059C9.55516 16.0517 9.6142 16.0324 9.66785 16.0021C9.72149 15.9719 9.76872 15.9314 9.80664 15.8829C9.84456 15.8344 9.87242 15.7788 9.88879 15.7195C9.90517 15.6601 9.90966 15.5981 9.90198 15.537C9.88649 15.4136 9.82275 15.3014 9.72473 15.225C9.62671 15.1485 9.50244 15.114 9.37903 15.129C9.24503 15.146 9.10499 15.145 8.96899 15.154V1.14899C9.10499 1.15799 9.24503 1.15799 9.37903 1.17499Z" fill="#B0B0C7"/>
<path d="M16.3999 7.09995C16.3823 6.97758 16.3172 6.8671 16.2188 6.79227C16.1204 6.71743 15.9966 6.68428 15.8739 6.69998C15.7511 6.71712 15.6401 6.78213 15.5651 6.88089C15.4901 6.97965 15.4574 7.10408 15.4739 7.22696C15.5149 7.53526 15.5353 7.84594 15.535 8.15695C15.5351 8.46158 15.5153 8.7659 15.4759 9.06796C15.4672 9.13422 15.4728 9.2016 15.4922 9.26553C15.5117 9.32946 15.5445 9.38844 15.5887 9.43863C15.6328 9.48881 15.6872 9.52901 15.7481 9.55649C15.809 9.58396 15.8751 9.59813 15.9419 9.59799C16.0554 9.59757 16.1648 9.5561 16.25 9.48129C16.3353 9.40649 16.3907 9.30336 16.4059 9.19095C16.4616 8.84881 16.495 8.50342 16.5059 8.15695C16.4957 7.8038 16.4624 7.45175 16.4059 7.103L16.3999 7.09995Z" fill="#B0B0C7"/>
<path d="M11.1608 1.64206C11.7321 1.87529 12.27 2.18292 12.7608 2.55703C12.8597 2.63231 12.9845 2.66521 13.1077 2.64853C13.2309 2.63184 13.3424 2.56693 13.4177 2.46805C13.493 2.3691 13.526 2.24432 13.5093 2.12112C13.4926 1.99793 13.4276 1.88635 13.3288 1.811C12.7734 1.38765 12.1649 1.03902 11.5188 0.774014C11.4036 0.727873 11.2749 0.728872 11.1604 0.776761C11.0459 0.82465 10.9548 0.915634 10.9068 1.03006C10.8599 1.14531 10.8605 1.2744 10.9087 1.38913C10.9569 1.50385 11.0486 1.59484 11.1637 1.64206H11.1608Z" fill="#B0B0C7"/>
<path d="M15.6109 10.589C15.496 10.5418 15.3672 10.542 15.2524 10.5894C15.1376 10.6367 15.0462 10.7275 14.998 10.842C14.7622 11.4113 14.4522 11.947 14.076 12.435C14.0003 12.5337 13.9668 12.6585 13.983 12.7818C13.9991 12.9051 14.0634 13.017 14.1619 13.093C14.2605 13.1686 14.3851 13.202 14.5082 13.1858C14.6314 13.1697 14.7431 13.1054 14.8189 13.007C15.2451 12.4534 15.5968 11.8462 15.8649 11.201C15.9123 11.0861 15.9122 10.9572 15.8646 10.8425C15.8169 10.7277 15.7257 10.6366 15.6109 10.589Z" fill="#B0B0C7"/>
<path d="M12.7731 13.737C12.2838 14.1113 11.7476 14.4199 11.1781 14.655C11.0634 14.7026 10.9721 14.7937 10.9243 14.9084C10.8766 15.023 10.8761 15.152 10.9231 15.267C10.9705 15.3819 11.0617 15.4733 11.1764 15.5211C11.2912 15.569 11.4202 15.5692 11.5352 15.5219C12.1808 15.2561 12.7884 14.9061 13.3422 14.481C13.3911 14.4436 13.4322 14.3969 13.463 14.3437C13.4939 14.2904 13.5139 14.2315 13.522 14.1705C13.5301 14.1095 13.526 14.0475 13.51 13.988C13.4941 13.9285 13.4666 13.8728 13.4291 13.8239C13.3918 13.7751 13.3453 13.7341 13.2921 13.7032C13.239 13.6724 13.1801 13.6523 13.1192 13.6443C13.0582 13.6362 12.9963 13.6402 12.9369 13.6561C12.8775 13.672 12.8218 13.6995 12.7731 13.737Z" fill="#B0B0C7"/>
<path d="M14.9922 5.44597C15.0158 5.5027 15.0504 5.55422 15.094 5.59758C15.1375 5.64095 15.1892 5.67532 15.2461 5.69872C15.3029 5.72212 15.3637 5.73413 15.4251 5.734C15.4866 5.73387 15.5475 5.72162 15.6042 5.69799C15.6611 5.67425 15.7127 5.63953 15.7562 5.59581C15.7997 5.5521 15.8341 5.50025 15.8575 5.44323C15.8809 5.3862 15.8929 5.32512 15.8927 5.26348C15.8925 5.20184 15.88 5.14083 15.8562 5.08397C15.587 4.44055 15.2343 3.83537 14.8072 3.28398C14.7696 3.23529 14.7228 3.19451 14.6694 3.16393C14.616 3.13335 14.5572 3.11356 14.4962 3.10576C14.4352 3.09796 14.3732 3.10229 14.3138 3.11846C14.2545 3.13462 14.1989 3.16233 14.1502 3.2C14.1014 3.23751 14.0605 3.28432 14.0299 3.3377C13.9992 3.39107 13.9793 3.44998 13.9715 3.51104C13.9637 3.57209 13.9681 3.6341 13.9844 3.69347C14.0006 3.75284 14.0285 3.8084 14.0663 3.85698C14.4427 4.34412 14.7539 4.87829 14.9922 5.44597Z" fill="#B0B0C7"/>
</svg>
