<svg width="17" height="17" viewBox="0 0 17 17" fill="none" xmlns="http://www.w3.org/2000/svg">
<path d="M9.37903 1.67499C9.44016 1.68254 9.50215 1.67798 9.56152 1.66156C9.62089 1.64514 9.67641 1.61723 9.72498 1.57935C9.77354 1.54146 9.81424 1.49439 9.8446 1.4408C9.87497 1.38721 9.89443 1.32816 9.90198 1.26703C9.90966 1.20593 9.90517 1.14389 9.88879 1.08453C9.87242 1.02517 9.84456 0.969658 9.80664 0.921143C9.76872 0.872627 9.72149 0.832045 9.66785 0.801819C9.6142 0.771593 9.55516 0.752293 9.49402 0.744995C9.16496 0.693233 8.83295 0.662154 8.5 0.651978C6.38078 0.660142 4.3507 1.50563 2.85217 3.00415C1.35365 4.50268 0.508165 6.53276 0.5 8.65198C0.508165 10.7712 1.35365 12.8013 2.85217 14.2998C4.3507 15.7983 6.38078 16.6438 8.5 16.652C8.83295 16.6418 9.16495 16.6108 9.49402 16.559C9.55516 16.5517 9.6142 16.5324 9.66785 16.5021C9.72149 16.4719 9.76872 16.4314 9.80664 16.3829C9.84456 16.3344 9.87242 16.2788 9.88879 16.2195C9.90517 16.1601 9.90966 16.0981 9.90198 16.037C9.88649 15.9136 9.82275 15.8014 9.72473 15.725C9.62671 15.6485 9.50244 15.614 9.37903 15.629C9.24503 15.646 9.10499 15.645 8.96899 15.654V1.64899C9.10499 1.65799 9.24503 1.65799 9.37903 1.67499Z" fill="#FF4F79"/>
<path d="M16.3999 7.59995C16.3823 7.47758 16.3172 7.3671 16.2188 7.29227C16.1204 7.21743 15.9966 7.18428 15.8739 7.19998C15.7511 7.21712 15.6401 7.28213 15.5651 7.38089C15.4901 7.47965 15.4574 7.60408 15.4739 7.72696C15.5149 8.03526 15.5353 8.34594 15.535 8.65695C15.5351 8.96158 15.5153 9.2659 15.4759 9.56796C15.4672 9.63422 15.4728 9.7016 15.4922 9.76553C15.5117 9.82946 15.5445 9.88844 15.5887 9.93863C15.6328 9.98881 15.6872 10.029 15.7481 10.0565C15.809 10.084 15.8751 10.0981 15.9419 10.098C16.0554 10.0976 16.1648 10.0561 16.25 9.98129C16.3353 9.90649 16.3907 9.80336 16.4059 9.69095C16.4616 9.34881 16.495 9.00342 16.5059 8.65695C16.4957 8.3038 16.4624 7.95175 16.4059 7.603L16.3999 7.59995Z" fill="#FF4F79"/>
<path d="M11.1608 2.14206C11.7321 2.37529 12.27 2.68292 12.7608 3.05703C12.8597 3.13231 12.9845 3.16521 13.1077 3.14853C13.2309 3.13184 13.3424 3.06693 13.4177 2.96805C13.493 2.8691 13.526 2.74432 13.5093 2.62112C13.4926 2.49793 13.4276 2.38635 13.3288 2.311C12.7734 1.88765 12.1649 1.53902 11.5188 1.27401C11.4036 1.22787 11.2749 1.22887 11.1604 1.27676C11.0459 1.32465 10.9548 1.41563 10.9068 1.53006C10.8599 1.64531 10.8605 1.7744 10.9087 1.88913C10.9569 2.00385 11.0486 2.09484 11.1637 2.14206H11.1608Z" fill="#FF4F79"/>
<path d="M15.6109 11.089C15.496 11.0418 15.3672 11.042 15.2524 11.0894C15.1376 11.1367 15.0462 11.2275 14.998 11.342C14.7622 11.9113 14.4522 12.447 14.076 12.935C14.0003 13.0337 13.9668 13.1585 13.983 13.2818C13.9991 13.4051 14.0634 13.517 14.1619 13.593C14.2605 13.6686 14.3851 13.702 14.5082 13.6858C14.6314 13.6697 14.7431 13.6054 14.8189 13.507C15.2451 12.9534 15.5968 12.3462 15.8649 11.701C15.9123 11.5861 15.9122 11.4572 15.8646 11.3425C15.8169 11.2277 15.7257 11.1366 15.6109 11.089Z" fill="#FF4F79"/>
<path d="M12.7731 14.237C12.2838 14.6113 11.7476 14.9199 11.1781 15.155C11.0634 15.2026 10.9721 15.2937 10.9243 15.4084C10.8766 15.523 10.8761 15.652 10.9231 15.767C10.9705 15.8819 11.0617 15.9733 11.1764 16.0211C11.2912 16.069 11.4202 16.0692 11.5352 16.0219C12.1808 15.7561 12.7884 15.4061 13.3422 14.981C13.3911 14.9436 13.4322 14.8969 13.463 14.8437C13.4939 14.7904 13.5139 14.7315 13.522 14.6705C13.5301 14.6095 13.526 14.5475 13.51 14.488C13.4941 14.4285 13.4666 14.3728 13.4291 14.3239C13.3918 14.2751 13.3453 14.2341 13.2921 14.2032C13.239 14.1724 13.1801 14.1523 13.1192 14.1443C13.0582 14.1362 12.9963 14.1402 12.9369 14.1561C12.8775 14.172 12.8218 14.1995 12.7731 14.237Z" fill="#FF4F79"/>
<path d="M14.9922 5.94597C15.0158 6.0027 15.0504 6.05422 15.094 6.09758C15.1375 6.14095 15.1892 6.17532 15.2461 6.19872C15.3029 6.22212 15.3637 6.23413 15.4251 6.234C15.4866 6.23387 15.5475 6.22162 15.6042 6.19799C15.6611 6.17425 15.7127 6.13953 15.7562 6.09581C15.7997 6.0521 15.8341 6.00025 15.8575 5.94323C15.8809 5.8862 15.8929 5.82512 15.8927 5.76348C15.8925 5.70184 15.88 5.64083 15.8562 5.58397C15.587 4.94055 15.2343 4.33537 14.8072 3.78398C14.7696 3.73529 14.7228 3.69451 14.6694 3.66393C14.616 3.63335 14.5572 3.61356 14.4962 3.60576C14.4352 3.59796 14.3732 3.60229 14.3138 3.61846C14.2545 3.63462 14.1989 3.66233 14.1502 3.7C14.1014 3.73751 14.0605 3.78432 14.0299 3.8377C13.9992 3.89107 13.9793 3.94998 13.9715 4.01104C13.9637 4.07209 13.9681 4.1341 13.9844 4.19347C14.0006 4.25284 14.0285 4.3084 14.0663 4.35698C14.4427 4.84412 14.7539 5.37829 14.9922 5.94597Z" fill="#FF4F79"/>
</svg>
