<svg width="20" height="20" viewBox="0 0 20 20" fill="none" xmlns="http://www.w3.org/2000/svg">
<path d="M4.09514 12.9307L3.56783 16.1224C3.41395 17.052 3.77612 17.9738 4.5108 18.5276C5.24641 19.0824 6.20345 19.1535 7.00756 18.7145L9.77079 17.2077C9.91435 17.1289 10.087 17.1289 10.2306 17.2077L12.9938 18.7145C13.3438 18.9053 13.7228 18.9997 14.0991 18.9997C14.5879 18.9997 15.0749 18.8401 15.4905 18.5276C16.2262 17.9738 16.5874 17.051 16.4335 16.1224L15.9053 12.9307C15.8781 12.7642 15.9315 12.5939 16.0469 12.4771L18.2819 10.2169C18.9331 9.55891 19.163 8.59234 18.8824 7.69586C18.6019 6.79938 17.8682 6.15695 16.9683 6.02165L13.8795 5.55541C13.7191 5.53107 13.5793 5.42595 13.508 5.27507L12.1268 2.37149C11.7243 1.52562 10.9099 1 10.0007 1C9.09148 1 8.27705 1.52562 7.87453 2.37149L6.49338 5.27507C6.42114 5.42595 6.28133 5.53107 6.12089 5.55541L3.03207 6.02165C2.1332 6.15793 1.39946 6.79938 1.11798 7.69586C0.836493 8.59234 1.06731 9.55891 1.71848 10.2169L3.95346 12.4761C4.06981 12.5939 4.12329 12.7642 4.09514 12.9307Z" fill="#111A18"/>
</svg>
