<svg width="19" height="20" viewBox="0 0 19 20" fill="none" xmlns="http://www.w3.org/2000/svg">
<path d="M18.4863 12.9901V8.59347C18.4863 4.59651 18.4863 2.59802 17.2872 1.29901C16.0881 0 14.1896 0 10.2926 0H8.59385C4.79673 0 2.79825 0 1.59916 1.29901C0.5 2.4981 0.5 4.49658 0.5 8.49354V12.9901C0.5 16.4875 0.5 18.1862 1.19947 18.9856C1.79901 19.685 2.5984 19.9848 3.3978 19.9848C4.39704 19.8849 5.59613 18.6858 7.89438 16.1877C8.394 15.5881 8.69377 15.2884 8.99354 15.1885C9.29331 15.0885 9.59309 15.0885 9.79294 15.1885C10.0927 15.2884 10.3925 15.5881 10.8921 16.1877C13.2903 18.6858 14.3894 19.8849 15.3887 19.9848C16.288 20.0847 17.0874 19.685 17.587 18.9856C18.4863 18.1862 18.4863 16.4875 18.4863 12.9901Z" fill="#EB5050"/>
<path d="M12.4908 7.79409H6.49537C6.09567 7.79409 5.7959 7.39439 5.7959 6.9947C5.7959 6.595 6.09567 6.29523 6.49537 6.29523H12.4908C12.8905 6.29523 13.2902 6.595 13.2902 7.09462C13.2902 7.59424 12.8905 7.79409 12.4908 7.79409Z" fill="white"/>
</svg>
