<svg width="17" height="17" viewBox="0 0 17 17" fill="none" xmlns="http://www.w3.org/2000/svg">
<path d="M14.4186 16.7442H2.32558C1.02326 16.7442 0 15.7209 0 14.4186V2.32558C0 1.02326 1.02326 0 2.32558 0H14.4186C15.7209 0 16.7442 1.02326 16.7442 2.32558V14.4186C16.7442 15.6279 15.6279 16.7442 14.4186 16.7442ZM2.32558 1.86046C2.04651 1.86046 1.86046 2.04651 1.86046 2.32558V14.4186C1.86046 14.6977 2.04651 14.8837 2.32558 14.8837H14.4186C14.6977 14.8837 14.8837 14.6977 14.8837 14.4186V2.32558C14.8837 2.04651 14.6977 1.86046 14.4186 1.86046H2.32558Z" fill="#323232"/>
<path d="M7.44181 11.6279C7.25577 11.6279 6.9767 11.5349 6.79065 11.3488L3.99996 8.74419C3.62786 8.3721 3.62786 7.81396 3.90693 7.44186C4.27903 7.06977 4.83716 7.06977 5.20926 7.34884L7.34879 9.30233L11.3488 5.20931C11.7209 4.83721 12.279 4.83721 12.6511 5.20931C13.0232 5.5814 13.0232 6.13954 12.6511 6.51163L7.99995 11.2558C7.90693 11.5349 7.62786 11.6279 7.44181 11.6279Z" fill="#323232"/>
</svg>
