<svg width="17" height="18" viewBox="0 0 17 18" fill="none" xmlns="http://www.w3.org/2000/svg">
<path d="M16.6447 11.007C16.6439 11.0062 16.6424 11.0055 16.6417 11.004L15.499 9.94425C15.5377 9.62475 15.5577 9.30825 15.5577 9C15.5577 8.69175 15.5377 8.37525 15.499 8.05575L16.6447 6.993C17.0228 6.63375 17.109 6.06375 16.8527 5.60175L15.5919 3.40125C15.3393 2.9475 14.7903 2.7315 14.2873 2.88975L12.8044 3.36225C12.3014 2.967 11.7591 2.649 11.1885 2.415L10.846 0.87825C10.7338 0.36975 10.2784 0 9.76281 0H7.23681C6.72121 0 6.26579 0.36975 6.1536 0.8775L5.81111 2.415C5.24053 2.649 4.69819 2.967 4.19522 3.36225L2.71082 2.88975C2.21082 2.733 1.66031 2.94675 1.41068 3.39675L0.144708 5.60625C-0.109377 6.06375 -0.0231959 6.63375 0.358675 6.996L1.50132 8.05575C1.46194 8.37525 1.44188 8.69175 1.44188 9C1.44188 9.30825 1.46194 9.62475 1.50057 9.94425L0.35496 11.007C-0.023196 11.3663 -0.109377 11.9363 0.146937 12.3975L1.40771 14.598C1.66031 15.0525 2.2086 15.2677 2.71231 15.1102L4.19522 14.6378C4.69819 15.033 5.24053 15.351 5.81111 15.585L6.1536 17.121C6.26579 17.6302 6.72121 18 7.23681 18H9.76281C10.2784 18 10.7338 17.6302 10.846 17.1225L11.1885 15.585C11.7591 15.351 12.3014 15.0338 12.8044 14.6378L14.2888 15.1102C14.7903 15.2685 15.3393 15.0525 15.5897 14.6025L16.8557 12.393C17.109 11.9362 17.0228 11.3663 16.6447 11.007ZM8.49981 12.75C6.45152 12.75 4.78511 11.0677 4.78511 9C4.78511 6.93225 6.45152 5.25 8.49981 5.25C10.5481 5.25 12.2145 6.93225 12.2145 9C12.2145 11.0677 10.5481 12.75 8.49981 12.75Z" fill="#111A18"/>
</svg>
