<svg width="20" height="20" viewBox="0 0 20 20" fill="none" xmlns="http://www.w3.org/2000/svg">
<path fill-rule="evenodd" clip-rule="evenodd" d="M10.6131 1.00433C10.5376 1.01214 10.4642 1.03047 10.3961 1.05871C10.1233 1.17171 9.90432 1.45629 9.90435 1.79473V4.76262C9.90435 5.09928 9.62305 5.38182 9.26124 5.42173C4.6153 5.93422 0.999969 9.87752 1 14.6564C1.00002 14.6568 1.00005 14.6573 1.00007 14.6578C1.0042 15.7744 1.2099 16.8784 1.60411 17.9175C1.72449 18.2348 1.98288 18.5123 2.32646 18.5224C2.67005 18.5325 2.92849 18.3053 3.10443 18.0263C4.49945 15.814 6.83888 14.3633 9.44141 14.0977C9.70036 14.0713 9.90435 14.2752 9.90435 14.5573V17.6246C9.90435 17.963 10.1233 18.2474 10.396 18.3604C10.6687 18.4734 11.0247 18.427 11.264 18.1878L18.4793 10.9724C19.1736 10.2781 19.1736 9.14079 18.4793 8.44654L11.2642 1.23134C11.0847 1.05185 10.8395 0.980915 10.6131 1.00433Z" fill="#111A18"/>
</svg>
