<svg width="20" height="20" viewBox="0 0 20 20" fill="none" xmlns="http://www.w3.org/2000/svg">
<path d="M10.9438 16.0187C10.9438 14.6633 11.4715 13.3887 12.4301 12.4301C13.3887 11.4715 14.6629 10.9438 16.0187 10.9438C17.1316 10.9438 18.1898 11.3 19.0637 11.9578C19.1121 11.25 19.1422 10.4582 19.1434 9.57187C19.141 7.34258 18.9539 5.71016 18.7543 4.51055C18.4051 2.53398 16.6098 0.738672 14.6332 0.389453C13.4336 0.189453 11.8012 0.00234375 9.57148 0C7.34219 0.00234375 5.70937 0.189453 4.50977 0.389063C2.53359 0.738281 0.738281 2.53359 0.389063 4.51016C0.189453 5.70977 0.00273438 7.34219 0 9.57148C0.00273438 11.8008 0.189453 13.4336 0.389063 14.6332C0.738281 16.6098 2.53359 18.4051 4.51016 18.7543C5.70977 18.9539 7.34219 19.1406 9.57187 19.1434C10.4582 19.1422 11.25 19.1121 11.9578 19.0637C11.3 18.1898 10.9438 17.132 10.9438 16.0187ZM4.84219 4.62578H14.3012C14.9129 4.62578 15.409 5.12187 15.409 5.73359C15.409 6.34531 14.9129 6.84141 14.3012 6.84141H4.84219C4.23047 6.84141 3.73437 6.34531 3.73437 5.73359C3.73437 5.12187 4.23047 4.62578 4.84219 4.62578ZM4.84219 11.4676C4.23047 11.4676 3.73437 10.9715 3.73437 10.3598C3.73437 9.74805 4.23047 9.25195 4.84219 9.25195H10.3949C11.0066 9.25195 11.5027 9.74805 11.5027 10.3598C11.5027 10.9715 11.0066 11.4676 10.3949 11.4676H4.84219Z" fill="#111A18"/>
<path d="M16.0186 12.0375C13.8198 12.0375 12.0374 13.8199 12.0374 16.0188C12.0374 18.2176 13.8198 20 16.0186 20C18.2174 20 19.9999 18.2176 19.9999 16.0188C19.9999 13.8199 18.2174 12.0375 16.0186 12.0375ZM16.7608 17.9941C16.7608 18.4039 16.4284 18.7363 16.0186 18.7363C15.6088 18.7363 15.2764 18.4039 15.2764 17.9941V16.0359C15.2764 15.6262 15.6088 15.2938 16.0186 15.2938C16.4284 15.2938 16.7608 15.6262 16.7608 16.0359V17.9941ZM16.7303 14.4473C16.703 14.602 16.5624 14.7426 16.4077 14.7699C16.3139 14.7856 16.1858 14.8 16.0112 14.8004C15.8366 14.8004 15.7088 14.7856 15.6147 14.7699C15.46 14.7426 15.3194 14.602 15.292 14.4473C15.2764 14.3535 15.262 14.2254 15.2616 14.0508C15.2616 13.8762 15.2764 13.7484 15.292 13.6543C15.3194 13.4996 15.46 13.359 15.6147 13.3316C15.7084 13.316 15.8366 13.3016 16.0112 13.3012C16.1858 13.3012 16.3135 13.316 16.4077 13.3316C16.5624 13.359 16.703 13.4996 16.7303 13.6543C16.7459 13.7481 16.7604 13.8762 16.7608 14.0508C16.7608 14.2254 16.7459 14.3531 16.7303 14.4473Z" fill="#111A18"/>
</svg>
